<svg xmlns="http://www.w3.org/2000/svg" viewBox="0 0 64 64" id="down"><path d="M32 47.75a2 2 0 0 1-1.45-.62l-11-11.5a2 2 0 0 1 2.9-2.76l11 11.5a2 2 0 0 1-.07 2.83 2 2 0 0 1-1.38.55Z"></path><path d="M32 47.75a2 2 0 0 1-1.38-.55 2 2 0 0 1-.07-2.83l11-11.5a2 2 0 1 1 2.9 2.76l-11 11.5a2 2 0 0 1-1.45.62zm0-16a2 2 0 0 1-1.45-.62l-11-11.5a2 2 0 0 1 2.9-2.76l11 11.5a2 2 0 0 1-.07 2.83 2 2 0 0 1-1.38.55z"></path><path d="M32 31.75a2 2 0 0 1-1.38-.55 2 2 0 0 1-.07-2.83l11-11.5a2 2 0 1 1 2.9 2.76l-11 11.5a2 2 0 0 1-1.45.62Z"></path></svg>